<svg xmlns="http://www.w3.org/2000/svg" width="310" height="158" fill="none">
  <path fill="#FFFFF1" d="M284 153v5h4l1-4-5-1Zm-259 0h-5v5h5v-5Zm0-2h5v-1l-5 1ZM5 131H0v4l4 1 1-5ZM5 23v-5H0v5h5ZM25 6l5 2V6h-5Zm0-1V0h-5v5h5Zm259 0 5-1V0h-5v5Zm21 22h5v-4l-4-1-1 5Zm0 108v5h5v-5h-5ZM26 158h258v-10H26v10Zm-1 0h1v-10h-1v10Zm-5-7v2h10v-2H20ZM4 136c5 1 14 6 17 16l9-2c-3-16-17-22-24-24l-2 10ZM0 23v108h10V23H0ZM21 5C18 15 9 18 5 18v10c7 0 21-4 25-20l-9-3Zm-1 0v1h10V5H20Zm6-5h-1v10h1V0Zm258 0H26v10h258V0Zm22 22c-5-1-15-6-17-18l-10 2c3 17 18 24 25 26l2-10Zm4 113V27h-10v108h10Zm-21 19c3-11 12-14 16-14v-10c-7 0-22 5-26 22l10 2Z"/>
</svg>